<svg width="124" height="137" viewBox="0 0 124 137" fill="none" xmlns="http://www.w3.org/2000/svg">
<path d="M108.346 0.884705C116.284 0.884705 122.687 7.30395 123.065 14.858V136.383L107.951 123.55L99.652 115.996L90.5962 108.104L94.3788 120.553H15.1235C7.20809 120.553 0.783203 114.54 0.783203 106.574V14.8862C0.783203 7.33218 7.21939 0.901642 15.1517 0.901642H108.307L108.346 0.884705ZM73.8056 32.9696H73.6363L72.4958 34.0988C84.1995 37.4863 89.8622 42.7763 89.8622 42.7763C82.3195 39.005 75.522 37.1193 68.7244 36.3571C63.8126 35.5949 58.9008 35.9958 54.7512 36.3571H53.622C50.9685 36.3571 45.3227 37.4863 37.7574 40.5067C35.1208 41.6528 33.6077 42.4037 33.6077 42.4037C33.6077 42.4037 39.2648 36.7467 51.7307 33.7262L50.9685 32.964C50.9685 32.964 41.5288 32.6027 31.3381 40.1341C31.3381 40.1341 21.1475 57.8844 21.1475 79.7674C21.1475 79.7674 26.7933 89.5911 42.2796 89.9637C42.2796 89.9637 44.5379 86.9545 46.8245 84.3067C38.13 81.6644 34.7425 76.38 34.7425 76.38C34.7425 76.38 35.4991 76.7526 36.6339 77.5091H36.9726C37.142 77.5091 37.221 77.5938 37.3114 77.6785V77.7124C37.4017 77.8027 37.4807 77.8818 37.6501 77.8818C39.5132 78.6496 41.3763 79.4061 42.9007 80.1401C46.1607 81.5356 49.5707 82.551 53.0631 83.1662C58.3136 83.9284 64.332 84.2954 71.186 83.1662C74.5735 82.404 77.9609 81.6588 81.3484 80.1457C83.5502 79.0166 86.2602 77.8874 89.2355 75.9848C89.2355 75.9848 85.8481 81.2692 76.7866 83.9115C78.6497 86.5424 81.275 89.5572 81.275 89.5572C96.767 89.2185 102.785 79.3948 103.124 79.8126C103.124 57.9635 92.8771 40.1793 92.8771 40.1793C83.6462 33.3253 75.0082 33.0656 73.4838 33.0656L73.8 32.9527L73.8056 32.9696ZM74.7541 57.8844C78.7231 57.8844 81.9243 61.2719 81.9243 65.4215C81.9243 69.5994 78.7062 72.9869 74.7541 72.9869C70.8021 72.9869 67.584 69.5994 67.584 65.4554C67.5953 61.2775 70.819 57.9014 74.7541 57.9014V57.8844ZM49.1054 57.8844C53.0574 57.8844 56.2529 61.2719 56.2529 65.4215C56.2529 69.5994 53.0348 72.9869 49.0828 72.9869C45.1308 72.9869 41.9127 69.5994 41.9127 65.4554C41.9127 61.2775 45.1308 57.9014 49.0828 57.9014L49.1054 57.8844Z" fill="#FEA800"/>
</svg>
