<svg width="119" height="97" viewBox="0 0 119 97" fill="none" xmlns="http://www.w3.org/2000/svg">
<path d="M118.209 11.4661C113.775 13.4184 109.078 14.707 104.268 15.2906C109.332 12.247 113.123 7.47405 114.942 1.85305C110.249 4.59189 105.048 6.58556 99.5109 7.6959C95.8579 3.78963 91.0174 1.1988 85.741 0.325731C80.4645 -0.547339 75.0474 0.346206 70.3309 2.86761C65.6144 5.38901 61.8624 9.39718 59.6575 14.2697C57.4525 19.1422 56.9182 24.6064 58.1373 29.8138C37.9538 28.8614 20.065 19.1694 8.09312 4.51786C5.91585 8.21807 4.78019 12.4384 4.80653 16.7316C4.80653 25.1701 9.09983 32.5872 15.6039 36.9446C11.7491 36.8219 7.97948 35.7797 4.60913 33.9048V34.2058C4.60695 39.8137 6.54491 45.2497 10.0942 49.5914C13.6435 53.9332 18.5856 56.9133 24.082 58.0262C20.5205 58.9805 16.7903 59.1239 13.1661 58.4457C14.7268 63.2716 17.7547 67.4902 21.8275 70.5129C25.9003 73.5357 30.815 75.212 35.8861 75.308C27.297 82.0484 16.6919 85.7068 5.77375 85.6958C3.84917 85.6958 1.92952 85.5823 0 85.3652C11.1315 92.4927 24.0746 96.2761 37.2925 96.2663C81.9725 96.2663 106.375 59.2748 106.375 27.2477C106.375 26.2163 106.375 25.1751 106.301 24.1388C111.068 20.7083 115.18 16.4493 118.441 11.5648L118.209 11.4661Z" fill="#FEA800"/>
</svg>
