<?xml version="1.0" standalone="no"?>
<!DOCTYPE svg PUBLIC "-//W3C//DTD SVG 1.0//EN" "http://www.w3.org/TR/2001/REC-SVG-20010904/DTD/svg10.dtd">
<svg xmlns="http://www.w3.org/2000/svg" xmlns:xlink="http://www.w3.org/1999/xlink" id="body_1" width="22" height="22">

<g style="transform: translatey(23px) rotate(271deg) scale(0.5);">
    <path d="M28.3325 3.5L13.6675 3.5C 7.2975 3.5 3.5 7.2975 3.5 13.6675L3.5 13.6675L3.5 28.315C 3.5 34.7025 7.2975 38.5 13.6675 38.5L13.6675 38.5L28.315 38.5C 34.685 38.5 38.4825 34.7025 38.4825 28.3325L38.4825 28.3325L38.4825 13.6675C 38.5 7.2975 34.7025 3.5 28.3325 3.5zM28.105 19.5475L21.9275 25.725C 21.665 25.9875 21.3325 26.11 21 26.11C 20.6675 26.11 20.335 25.9875 20.0725 25.725L20.0725 25.725L13.895 19.5475C 13.6509 19.3005 13.514 18.9673 13.514 18.62C 13.514 18.2727 13.6509 17.9395 13.895 17.6925C 14.4025 17.185 15.2425 17.185 15.75 17.6925L15.75 17.6925L21 22.9425L26.25 17.6925C 26.7575 17.185 27.5975 17.185 28.105 17.6925C 28.6125 18.2 28.6125 19.0225 28.105 19.5475z" stroke="none" fill="#FEA800" fill-rule="nonzero" />
</g>
</svg>