<svg width="125" height="124" viewBox="0 0 125 124" fill="none" xmlns="http://www.w3.org/2000/svg">
<path d="M62.0837 0.100117C45.258 0.100117 43.1573 0.177536 36.5509 0.471728C29.9548 0.781405 25.4645 1.81882 21.5161 3.35172C17.4439 4.93107 13.9858 7.05235 10.5432 10.4949C7.10067 13.9375 4.97423 17.3904 3.40004 21.4678C1.86714 25.4162 0.824564 29.9065 0.520049 36.5026C0.210373 43.109 0.148438 45.2096 0.148438 62.0354C0.148438 78.8611 0.225857 80.9618 0.520049 87.5682C0.829726 94.1592 1.86714 98.6546 3.40004 102.603C4.95509 106.736 7.39278 110.481 10.5432 113.576C13.6363 116.729 17.3814 119.167 21.5161 120.719C25.4696 122.247 29.96 123.295 36.5509 123.599C43.1573 123.909 45.258 123.971 62.0837 123.971C78.9095 123.971 81.0101 123.893 87.6165 123.599C94.2075 123.289 98.7029 122.247 102.651 120.719C106.784 119.162 110.528 116.725 113.624 113.576C116.778 110.484 119.216 106.738 120.767 102.603C122.295 98.6546 123.343 94.1592 123.647 87.5682C123.957 80.9618 124.019 78.8611 124.019 62.0354C124.019 45.2096 123.942 43.109 123.647 36.5026C123.338 29.9116 122.295 25.411 120.767 21.4678C119.212 17.3347 116.774 13.5903 113.624 10.4949C110.533 7.33953 106.788 4.90108 102.651 3.35172C98.7029 1.81882 94.2075 0.776244 87.6165 0.471728C81.0101 0.162052 78.9095 0.100117 62.0837 0.100117ZM62.0837 11.2485C78.6153 11.2485 80.5869 11.331 87.1159 11.6149C93.1546 11.8988 96.432 12.9001 98.61 13.7568C101.511 14.8768 103.565 16.2188 105.743 18.3813C107.905 20.5491 109.247 22.6084 110.367 25.5091C111.214 27.6871 112.225 30.9645 112.499 37.0032C112.793 43.5374 112.86 45.4987 112.86 62.0354C112.86 78.5721 112.783 80.5386 112.478 87.0676C112.164 93.1063 111.157 96.3837 110.305 98.5617C109.298 101.25 107.714 103.684 105.666 105.695C103.664 107.745 101.231 109.325 98.5429 110.319C96.3752 111.166 93.0462 112.177 87.0075 112.451C80.432 112.745 78.4966 112.812 61.9289 112.812C45.356 112.812 43.4206 112.735 36.8503 112.43C30.8064 112.115 27.4774 111.109 25.3096 110.257C22.6201 109.262 20.188 107.676 18.1922 105.617C16.1204 103.629 14.5314 101.192 13.5471 98.4946C12.6955 96.3269 11.6942 92.9979 11.3794 86.9592C11.1471 80.456 11.0645 78.4482 11.0645 61.958C11.0645 45.4625 11.1471 43.4496 11.3794 36.869C11.6942 30.8303 12.6955 27.5065 13.5471 25.3387C14.631 22.3968 16.0194 20.3839 18.1922 18.211C20.3548 16.0485 22.3729 14.6549 25.3096 13.5762C27.4774 12.7194 30.7341 11.713 36.7728 11.4033C43.3535 11.171 45.2889 11.0936 61.8515 11.0936L62.0837 11.2485ZM62.0837 30.2316C57.9072 30.2316 53.7716 31.0543 49.9129 32.6525C46.0543 34.2508 42.5483 36.5935 39.5951 39.5467C36.6418 42.5 34.2992 46.006 32.7009 49.8646C31.1026 53.7232 30.2799 57.8589 30.2799 62.0354C30.2799 66.2119 31.1026 70.3476 32.7009 74.2062C34.2992 78.0648 36.6418 81.5708 39.5951 84.524C42.5483 87.4773 46.0543 89.82 49.9129 91.4182C53.7716 93.0165 57.9072 93.8392 62.0837 93.8392C70.5186 93.8392 78.608 90.4884 84.5724 84.524C90.5367 78.5597 93.8875 70.4703 93.8875 62.0354C93.8875 53.6005 90.5367 45.5111 84.5724 39.5467C78.608 33.5824 70.5186 30.2316 62.0837 30.2316ZM62.0837 82.6805C50.6773 82.6805 41.4386 73.4418 41.4386 62.0354C41.4386 50.629 50.6773 41.3903 62.0837 41.3903C73.4901 41.3903 82.7288 50.629 82.7288 62.0354C82.7288 73.4418 73.4901 82.6805 62.0837 82.6805ZM102.579 28.9774C102.507 30.9007 101.693 32.7212 100.307 34.0565C98.921 35.3918 97.0714 36.1378 95.1468 36.1378C93.2223 36.1378 91.3727 35.3918 89.9867 34.0565C88.6007 32.7212 87.7863 30.9007 87.7146 28.9774C87.7146 27.0063 88.4976 25.1159 89.8914 23.7221C91.2853 22.3282 93.1757 21.5452 95.1468 21.5452C97.118 21.5452 99.0084 22.3282 100.402 23.7221C101.796 25.1159 102.579 27.0063 102.579 28.9774Z" fill="#FEA800"/>
</svg>
